<svg xmlns="http://www.w3.org/2000/svg" width="2452.576" height="517.676"><defs><clipPath id="a" clipPathUnits="userSpaceOnUse"><path d="M-1311.126-342.782h1920v1080h-1920Z"/></clipPath><clipPath id="b" clipPathUnits="userSpaceOnUse"><path d="M-583.435-341.066h1920v1080h-1920Z"/></clipPath><clipPath id="c" clipPathUnits="userSpaceOnUse"><path d="M-576.992-227.172h1920v1080h-1920Z"/></clipPath></defs><path d="M0 0c-25.532 0-44.347-19.218-44.347-44.089s19.218-44.21 44.742-44.21c14.339 0 27.63 5.654 36.839 17.371L19.993-58.557c-4.605-5.927-11.315-9.476-18.944-9.476-11.315 0-20.267 6.984-23.162 17.242h65.92c.388 2.371.517 4.339.517 6.71h.015C44.339-18.678 25.525.008-.008.008zm-21.459-34.75c3.161 9.339 11.451 15.259 21.847 15.259 10.395 0 18.943-5.783 22.105-15.259zm-56.057 49.089V-8.549C-83.17-3.161-91.468 0-101.073 0c-24.21 0-42.895-18.556-42.895-44.089 0-25.532 18.685-44.21 42.895-44.21 10.654 0 18.944 3.822 24.735 9.871v-8.161h21.185V14.339ZM-98.709-67.25c-12.766 0-22.767 10-22.767 23.556 0 13.557 9.613 23.299 22.767 23.299 13.153 0 23.024-9.613 23.024-23.299 0-13.685-9.863-23.556-23.024-23.556zm-65.655-21.049a14.163 14.163 0 0 0-14.217 14.218c0 7.902 6.315 14.08 14.217 14.08 7.903 0 14.081-6.314 14.081-14.08s-6.193-14.218-14.081-14.218zm-18.024 44.21C-182.388-18.686-201.332 0-226.857 0c-25.524 0-44.347-19.218-44.347-44.089s19.218-44.21 44.742-44.21c14.34 0 27.63 5.654 36.84 17.371l-17.242 12.371c-4.605-5.927-11.315-9.476-18.944-9.476-11.315 0-20.266 6.984-23.161 17.242h65.92c.395 2.371.653 4.339.653 6.71zm-65.936 9.339c3.162 9.339 11.452 15.259 21.847 15.259 10.395 0 18.944-5.783 22.105-15.259zm-56.056 49.089V-86.589h22.363V14.339Zm-26.315-21.452c-7.234 0-12.766 5.654-12.766 12.508 0 6.854 5.532 12.63 12.766 12.63s12.766-5.654 12.766-12.63c0-6.976-5.654-12.508-12.766-12.508zm11.193-79.476h-22.5v72.63h22.5zM-395.833 0c-9.742-.008-17.766-3.161-23.685-8.556v22.903h-22.242V-86.445h21.049v8.025c5.79-6.057 14.217-9.871 24.871-9.871 24.202 0 42.758 18.944 42.758 44.21 0 25.266-18.548 44.089-42.758 44.089zm-2.492-67.25c-12.903 0-22.903 10-22.903 23.556 0 13.557 9.878 23.299 22.903 23.299 13.024 0 22.766-9.613 22.766-23.299 0-13.685-9.742-23.556-22.766-23.556zM-497.019 0c-25.403 0-44.742-18.556-44.742-44.089 0-25.532 19.354-44.21 44.742-44.21 25.388 0 44.468 18.944 44.468 44.21C-452.551-18.822-471.616 0-497.019 0zm0-67.508c-13.04 0-22.637 9.605-22.637 23.419 0 13.815 10.007 23.557 22.637 23.557 12.629 0 22.5-9.871 22.5-23.557 0-13.685-9.742-23.419-22.5-23.419zm-55.138 49.483c0 9.735-5.919 17.767-16.588 17.767-8.024 0-14.218-4.476-17.5-12.766l-18.283-45.13v40.129c0 9.735-5.654 17.767-16.186 17.767-8.685 0-14.08-5-17.242-12.766l-18.685-45.92V-1.71h-19.613v-84.872h26.71l25.928 61.194v-46.057c0-9.605 5.258-16.588 14.871-16.588 8.29 0 12.766 4.742 15.79 11.968l21.186 51.057v-61.581h19.612z" clip-path="url(#a)" style="fill:#350051;fill-opacity:1;fill-rule:nonzero;stroke:none" transform="matrix(3.10223 0 0 -3.10223 2315.026 55.918)"/><path d="M0 0h36.323v-84.872H0c-10.258 0-18.556 8.291-18.556 18.557v47.774C-18.556-8.283-10.266.015 0 .015z" clip-path="url(#b)" style="fill:#fa3c00;fill-opacity:1;fill-rule:nonzero;stroke:none" transform="matrix(3.10223 0 0 -3.10223 57.565 61.242)"/><path d="M0 0h5.714C16.778 0 21.93-6.201 21.93-14.187S16.786-28.374 5.714-28.374H0Zm16.573-14.187c0 6.239-4.172 9.529-10.296 9.529H5.144v-19.05h1.057c6.162 0 10.38 3.244 10.38 9.528zm8.921-2.265c0 6.931 5.312 12.402 12.485 12.402 7.173 0 12.485-5.228 12.485-12.364 0-.524-.038-.934-.121-1.542H30.601c.646-3.648 3.685-6.201 7.659-6.201 2.592 0 4.78 1.094 6.323 3.078l3.974-2.835c-2.591-3.282-6.406-4.947-10.418-4.947-7.212 0-12.645 5.434-12.645 12.402zm19.818 2.873c-1.011 3.161-3.769 4.947-7.257 4.947-3.488 0-6.163-1.908-7.173-4.947zm29.636-14.795h-4.864v2.348c-1.421-1.824-3.769-2.835-6.405-2.835-5.35 0-8.998 3.61-8.998 9.165v15.159h5.107v-14.308c0-3.283 1.907-5.228 4.863-5.228 3.123 0 5.19 2.067 5.19 5.266v14.27h5.107zm6.846 7.014v10.539h-2.469v4.461h2.469v4.377l4.985 1.421V-6.36h3.488v-4.461h-3.488v-10.456c0-2.348 1.011-2.637 3.366-2.637h.327v-4.46h-1.094c-4.461 0-7.576 1.421-7.576 7.014zm11.923.121h4.985c.205-2.188 1.702-3.488 3.647-3.488 1.945 0 3.245 1.178 3.245 2.759 0 2.067-1.543 2.636-5.19 3.609-3.648 1.011-6.444 3.161-6.444 7.295s3.245 7.014 8.07 7.014 7.865-2.759 8.23-7.257h-4.985c-.122 1.983-1.497 3.161-3.245 3.161-1.862 0-3.078-1.178-3.078-2.591 0-1.824 1.178-2.432 4.902-3.488 3.723-1.056 6.687-3.321 6.687-7.333 0-4.499-3.283-7.295-8.23-7.295-4.947 0-8.305 2.834-8.594 7.622zm20.182 4.787c0 7.136 5.472 12.402 12.523 12.402 5.51 0 9.932-3.123 11.672-7.827l-4.498-1.702c-1.057 2.956-3.769 4.825-7.014 4.825-4.255 0-7.5-3.245-7.5-7.66 0-4.414 3.199-7.621 7.5-7.621 3.404 0 6.163 2.067 6.976 5.228l4.703-1.421c-1.421-5.145-5.995-8.633-11.839-8.633-7.051 0-12.523 5.229-12.523 12.402zM142.319 0h5.107v-6.527c1.421 1.618 3.609 2.469 6.079 2.469 5.311 0 9.08-3.609 9.08-9.164v-15.16h-5.106v14.309c0 3.283-1.907 5.228-4.863 5.228-3.123 0-5.19-2.067-5.19-5.266v-14.271h-5.107V-.008zm25.943 0h5.106v-28.374h-5.106zm9.726-16.452c0 7.136 5.312 12.402 12.121 12.402 3.199 0 5.995-1.254 7.826-3.526v3.039h4.864v-23.837h-4.864v3.077c-1.664-2.188-4.46-3.564-7.826-3.564-6.809 0-12.121 5.229-12.121 12.402zm20.061.076c0 4.415-3.199 7.66-7.462 7.66s-7.416-3.245-7.416-7.66 3.199-7.697 7.416-7.697c4.218 0 7.462 3.244 7.462 7.697zm10.624 11.839h4.863v-2.348c1.421 1.824 3.769 2.835 6.406 2.835 5.349 0 8.997-3.61 8.997-9.164v-15.16h-5.107v14.308c0 3.283-1.907 5.229-4.863 5.229-3.123 0-5.19-2.067-5.19-5.267v-14.27h-5.106zm24.643-11.915c0 7.136 5.228 12.402 12.036 12.402 3.199 0 5.836-1.3 7.538-3.367l.084-.083V0h5.106v-28.374h-4.825v3.366l-.205-.243c-1.664-2.227-4.293-3.61-7.698-3.61-6.808 0-12.036 5.229-12.036 12.402zm20.068.076c0 4.461-3.199 7.698-7.462 7.698s-7.416-3.245-7.416-7.698 3.199-7.659 7.416-7.659c4.218 0 7.462 3.199 7.462 7.659zm9.324-4.863h4.985c.205-2.188 1.702-3.488 3.647-3.488 1.946 0 3.245 1.178 3.245 2.759 0 2.067-1.542 2.636-5.19 3.609-3.647 1.011-6.444 3.161-6.444 7.295s3.245 7.014 8.07 7.014c4.826 0 7.865-2.759 8.23-7.257h-4.985c-.122 1.983-1.497 3.161-3.245 3.161-1.861 0-3.077-1.178-3.077-2.591 0-1.824 1.178-2.432 4.901-3.488s6.687-3.321 6.687-7.333c0-4.499-3.283-7.295-8.23-7.295-4.946 0-8.305 2.834-8.594 7.622zm31.209-4.293h5.311c.57-2.227 2.515-3.686 5.312-3.686 3.199 0 5.144 2.029 5.144 5.023v2.432a5.535 5.535 0 0 0-.889-.813c-1.459-1.094-3.001-1.824-5.349-1.824-5.593 0-10.175 4.537-10.175 10.175 0 5.638 4.498 10.213 10.091 10.213 2.272 0 3.974-.692 5.388-1.824.402-.281.767-.646 1.094-1.011v2.31h4.825V-23.67c0-6.163-4.255-9.567-10.175-9.567-5.919 0-9.688 3.366-10.577 7.697zm16.216 11.223c0 3.245-2.554 5.882-5.92 5.882s-5.881-2.591-5.881-5.882c0-3.29 2.591-5.836 5.881-5.836s5.92 2.516 5.92 5.836zm10.38 9.772h4.779V-8.1c1.459 2.469 3.975 3.807 7.379 3.807h.205v-4.985h-.281c-3.526 0-7.052-1.3-7.052-8.108v-10.988h-5.023v23.837zm13.776-11.915c0 7.136 5.388 12.402 12.523 12.402 7.136 0 12.569-5.266 12.569-12.402 0-7.135-5.433-12.401-12.569-12.401-7.135 0-12.523 5.228-12.523 12.401zm19.986 0c0 4.537-3.2 7.698-7.463 7.698s-7.454-3.199-7.454-7.698c0-4.498 3.199-7.659 7.454-7.659 4.256 0 7.463 3.199 7.463 7.659zM339.723 1.299c0 1.459 1.216 2.713 2.834 2.713 1.619 0 2.758-1.254 2.758-2.713a2.734 2.734 0 0 0-2.758-2.758c-1.618 0-2.834 1.216-2.834 2.758zm8.556 0c0 1.459 1.299 2.713 2.834 2.713 1.535 0 2.797-1.254 2.797-2.713 0-1.542-1.254-2.758-2.797-2.758-1.542 0-2.834 1.216-2.834 2.758zm26.588-.813c5.798 0 9.4-3.685 9.4-7.865 0-2.636-1.178-4.46-2.758-5.835 2.515-1.178 4.134-3.61 4.134-6.566 0-4.62-3.283-8.594-9.605-8.594h-3.853l1.421 4.582h2.348c2.796 0 4.62 1.543 4.62 4.012 0 2.067-1.664 3.648-4.012 3.648h-.243c-1.497 0-2.432 1.01-2.432 2.31 0 1.421 1.094 2.31 2.432 2.393 1.664.084 3.161 1.376 3.161 3.686 0 2.188-1.907 3.852-4.658 3.852-3.807 0-5.76-2.636-5.76-6.649v-17.834h-5.145v17.834c0 6.285 3.367 11.026 10.943 11.026zm16.178-21.846v10.539h-2.469v4.461h2.469v4.377l4.985 1.421V-6.36h3.488v-4.461h-3.488v-10.456c0-2.348 1.011-2.637 3.367-2.637h.326v-4.46h-1.094c-4.46 0-7.576 1.421-7.576 7.014zm11.346 4.908c0 6.931 5.311 12.402 12.484 12.402 7.174 0 12.485-5.228 12.485-12.364 0-.524-.038-.934-.121-1.542h-19.742c.646-3.648 3.685-6.201 7.66-6.201 2.591 0 4.779 1.094 6.322 3.078l3.974-2.835c-2.591-3.282-6.406-4.947-10.418-4.947-7.211 0-12.644 5.434-12.644 12.402zm19.825 2.873c-1.011 3.161-3.769 4.947-7.257 4.947-3.488 0-6.163-1.908-7.173-4.947zm9.567 9.042h4.78V-8.1c1.459 2.469 3.974 3.807 7.378 3.807h.205v-4.985h-.281c-3.526 0-7.052-1.3-7.052-8.108v-10.988h-5.022v23.837ZM457.68 0h13.739v-4.658h-8.595v-6.771h7.987v-4.658h-7.987v-12.28h-5.144V.008Zm16.945-16.452c0 7.136 5.312 12.402 12.121 12.402 3.199 0 5.995-1.254 7.826-3.526v3.039h4.864v-23.837h-4.864v3.077c-1.664-2.188-4.46-3.564-7.826-3.564-6.809 0-12.121 5.229-12.121 12.402zm20.069.076c0 4.415-3.199 7.66-7.462 7.66s-7.417-3.245-7.417-7.66 3.2-7.697 7.417-7.697 7.462 3.244 7.462 7.697zM505.31 0h5.106v-6.527c1.421 1.618 3.61 2.469 6.079 2.469 5.312 0 9.081-3.609 9.081-9.164v-15.16h-5.107v14.309c0 3.283-1.907 5.228-4.863 5.228-3.123 0-5.19-2.067-5.19-5.266v-14.271h-5.106V-.008zm25.942-4.537h4.78V-8.1c1.459 2.469 3.974 3.807 7.378 3.807h.206v-4.985h-.282c-3.525 0-7.051-1.3-7.051-8.108v-10.988h-5.023v23.837zm14.225-20.836c0 1.133.608 1.984 1.132 2.675L556.944-9.24h-10.258v4.703h12.933c2.226 0 3.282-1.299 3.282-2.917 0-1.376-.813-2.47-1.337-3.124L551.67-23.67h11.064v-4.704h-13.906c-2.226 0-3.366 1.299-3.366 3.001zm20.107 8.921c0 6.931 5.311 12.402 12.485 12.402 7.173 0 12.485-5.228 12.485-12.364 0-.524-.038-.934-.122-1.542H570.69c.646-3.648 3.686-6.201 7.66-6.201 2.591 0 4.78 1.094 6.322 3.078l3.974-2.835c-2.591-3.282-6.405-4.947-10.418-4.947-7.211 0-12.644 5.434-12.644 12.402zm19.825 2.873c-1.01 3.161-3.769 4.947-7.257 4.947-3.488 0-6.162-1.908-7.173-4.947zm29.628-14.795h-4.863v2.348c-1.421-1.824-3.769-2.835-6.406-2.835-5.349 0-8.997 3.61-8.997 9.165v15.159h5.107v-14.308c0-3.283 1.907-5.228 4.863-5.228 3.123 0 5.19 2.067 5.19 5.266v14.27h5.106zm5.312 2.842h5.312c.569-2.227 2.515-3.686 5.311-3.686 3.199 0 5.145 2.029 5.145 5.023v2.432a5.54 5.54 0 0 0-.89-.813c-1.459-1.094-3.001-1.824-5.349-1.824-5.593 0-10.175 4.537-10.175 10.175 0 5.638 4.499 10.213 10.091 10.213 2.272 0 3.975-.692 5.388-1.824.403-.281.767-.646 1.094-1.011v2.31h4.826V-23.67c0-6.163-4.256-9.567-10.175-9.567-5.92 0-9.689 3.366-10.578 7.697zm16.216 11.223c0 3.245-2.553 5.882-5.92 5.882-3.366 0-5.881-2.591-5.881-5.882 0-3.29 2.591-5.836 5.881-5.836 3.291 0 5.92 2.516 5.92 5.836zm10.38 9.772h4.704v-2.348c1.215 1.786 3.366 2.835 5.957 2.835 3.123 0 5.228-1.338 6.444-3.245 1.375 1.862 3.731 3.245 7.014 3.245 5.023 0 8.473-3.404 8.473-8.671v-15.646h-5.107v14.757c0 2.956-1.618 4.78-4.172 4.78-2.834 0-4.46-1.824-4.46-4.78v-14.757h-5.107v14.757c0 3.124-1.702 4.78-4.293 4.78-2.796 0-4.377-1.824-4.377-4.78v-14.757h-5.068v23.838zm36.969-11.915c0 7.136 5.311 12.402 12.12 12.402 3.199 0 5.995-1.254 7.827-3.526v3.039h4.863v-23.837h-4.863v3.077c-1.665-2.188-4.461-3.564-7.827-3.564-6.809 0-12.12 5.229-12.12 12.402zm20.061.076c0 4.415-3.2 7.66-7.455 7.66s-7.416-3.245-7.416-7.66 3.199-7.697 7.416-7.697c4.217 0 7.455 3.244 7.455 7.697zm10.623 11.839h4.779V-8.1c1.459 2.469 3.975 3.807 7.379 3.807h.205v-4.985h-.281c-3.526 0-7.052-1.3-7.052-8.108v-10.988h-5.023v23.837zm21.201-12.53v-11.307h-5.069V0h5.069v-14.757l8.753 10.213h6.361l-9.811-11.231 10.419-12.607h-6.604l-9.118 11.307zm19.05-4.293v10.539h-2.47v4.461h2.47v4.377l4.985 1.421V-6.36h3.488v-4.461h-3.488v-10.456c0-2.348 1.01-2.637 3.366-2.637h.327v-4.46h-1.094c-4.461 0-7.576 1.421-7.576 7.014z" clip-path="url(#c)" style="fill:#350051;fill-opacity:1;fill-rule:nonzero;stroke:none" transform="matrix(3.10223 0 0 -3.10223 37.575 414.567)"/></svg>